<mxfile host="app.diagrams.net" modified="2023-10-14T12:17:06.084Z" agent="Mozilla/5.0 (Windows NT 10.0; Win64; x64) AppleWebKit/537.36 (KHTML, like Gecko) Chrome/117.0.0.0 Safari/537.36" etag="qvsVDD5pwBh1XxRxugRO" version="22.0.4" type="device">
  <diagram name="Strona-1" id="CJGg0fWc6DchRFF4mzoJ">
    <mxGraphModel dx="1434" dy="758" grid="1" gridSize="10" guides="1" tooltips="1" connect="1" arrows="1" fold="1" page="1" pageScale="1" pageWidth="827" pageHeight="1169" math="0" shadow="0">
      <root>
        <mxCell id="0" />
        <mxCell id="1" parent="0" />
        <mxCell id="ETTQzNYsxQj3hr1kbfDq-1" value="pracownik" style="rounded=0;whiteSpace=wrap;html=1;" vertex="1" parent="1">
          <mxGeometry x="170" y="370" width="120" height="60" as="geometry" />
        </mxCell>
        <mxCell id="ETTQzNYsxQj3hr1kbfDq-14" style="edgeStyle=orthogonalEdgeStyle;rounded=0;orthogonalLoop=1;jettySize=auto;html=1;entryX=0.5;entryY=0;entryDx=0;entryDy=0;startArrow=ERone;startFill=0;endArrow=ERone;endFill=0;" edge="1" parent="1" source="ETTQzNYsxQj3hr1kbfDq-2" target="ETTQzNYsxQj3hr1kbfDq-1">
          <mxGeometry relative="1" as="geometry">
            <mxPoint x="230" y="360" as="targetPoint" />
          </mxGeometry>
        </mxCell>
        <mxCell id="ETTQzNYsxQj3hr1kbfDq-2" value="imie" style="ellipse;whiteSpace=wrap;html=1;" vertex="1" parent="1">
          <mxGeometry x="40" y="260" width="120" height="80" as="geometry" />
        </mxCell>
        <mxCell id="ETTQzNYsxQj3hr1kbfDq-6" style="edgeStyle=orthogonalEdgeStyle;rounded=0;orthogonalLoop=1;jettySize=auto;html=1;entryX=0;entryY=0.5;entryDx=0;entryDy=0;endArrow=ERone;endFill=0;startArrow=ERone;startFill=0;" edge="1" parent="1" source="ETTQzNYsxQj3hr1kbfDq-3" target="ETTQzNYsxQj3hr1kbfDq-1">
          <mxGeometry relative="1" as="geometry" />
        </mxCell>
        <mxCell id="ETTQzNYsxQj3hr1kbfDq-3" value="nazwisko" style="ellipse;whiteSpace=wrap;html=1;" vertex="1" parent="1">
          <mxGeometry x="20" y="360" width="120" height="80" as="geometry" />
        </mxCell>
        <mxCell id="ETTQzNYsxQj3hr1kbfDq-9" style="edgeStyle=orthogonalEdgeStyle;rounded=0;orthogonalLoop=1;jettySize=auto;html=1;exitX=0.5;exitY=0;exitDx=0;exitDy=0;startArrow=ERmany;startFill=0;endArrow=ERmany;endFill=0;" edge="1" parent="1" source="ETTQzNYsxQj3hr1kbfDq-4" target="ETTQzNYsxQj3hr1kbfDq-1">
          <mxGeometry relative="1" as="geometry" />
        </mxCell>
        <mxCell id="ETTQzNYsxQj3hr1kbfDq-4" value="tytul naukowy" style="ellipse;whiteSpace=wrap;html=1;" vertex="1" parent="1">
          <mxGeometry x="50" y="470" width="120" height="80" as="geometry" />
        </mxCell>
        <mxCell id="ETTQzNYsxQj3hr1kbfDq-33" style="edgeStyle=orthogonalEdgeStyle;rounded=0;orthogonalLoop=1;jettySize=auto;html=1;entryX=1;entryY=0.5;entryDx=0;entryDy=0;startArrow=ERmany;startFill=0;endArrow=ERmany;endFill=0;" edge="1" parent="1" source="ETTQzNYsxQj3hr1kbfDq-17" target="ETTQzNYsxQj3hr1kbfDq-1">
          <mxGeometry relative="1" as="geometry">
            <Array as="points">
              <mxPoint x="410" y="400" />
            </Array>
          </mxGeometry>
        </mxCell>
        <mxCell id="ETTQzNYsxQj3hr1kbfDq-17" value="wydzial" style="rounded=0;whiteSpace=wrap;html=1;" vertex="1" parent="1">
          <mxGeometry x="360" y="240" width="114" height="60" as="geometry" />
        </mxCell>
        <mxCell id="ETTQzNYsxQj3hr1kbfDq-27" style="edgeStyle=orthogonalEdgeStyle;rounded=0;orthogonalLoop=1;jettySize=auto;html=1;entryX=0;entryY=0.5;entryDx=0;entryDy=0;startArrow=ERone;startFill=0;endArrow=ERone;endFill=0;" edge="1" parent="1" source="ETTQzNYsxQj3hr1kbfDq-18" target="ETTQzNYsxQj3hr1kbfDq-17">
          <mxGeometry relative="1" as="geometry">
            <Array as="points">
              <mxPoint x="280" y="270" />
            </Array>
          </mxGeometry>
        </mxCell>
        <mxCell id="ETTQzNYsxQj3hr1kbfDq-18" value="nazwa" style="ellipse;whiteSpace=wrap;html=1;" vertex="1" parent="1">
          <mxGeometry x="234" y="110" width="120" height="80" as="geometry" />
        </mxCell>
        <mxCell id="ETTQzNYsxQj3hr1kbfDq-22" style="edgeStyle=orthogonalEdgeStyle;rounded=0;orthogonalLoop=1;jettySize=auto;html=1;entryX=1;entryY=0.5;entryDx=0;entryDy=0;endArrow=ERone;endFill=0;startArrow=ERone;startFill=0;" edge="1" parent="1" source="ETTQzNYsxQj3hr1kbfDq-20" target="ETTQzNYsxQj3hr1kbfDq-17">
          <mxGeometry relative="1" as="geometry" />
        </mxCell>
        <mxCell id="ETTQzNYsxQj3hr1kbfDq-20" value="adres" style="ellipse;whiteSpace=wrap;html=1;" vertex="1" parent="1">
          <mxGeometry x="474" y="120" width="120" height="80" as="geometry" />
        </mxCell>
        <mxCell id="ETTQzNYsxQj3hr1kbfDq-31" style="edgeStyle=orthogonalEdgeStyle;rounded=0;orthogonalLoop=1;jettySize=auto;html=1;entryX=0.5;entryY=1;entryDx=0;entryDy=0;startArrow=ERmany;startFill=0;endArrow=ERmany;endFill=0;" edge="1" parent="1" source="ETTQzNYsxQj3hr1kbfDq-29" target="ETTQzNYsxQj3hr1kbfDq-30">
          <mxGeometry relative="1" as="geometry">
            <mxPoint x="690" y="460" as="targetPoint" />
            <Array as="points">
              <mxPoint x="700" y="430" />
            </Array>
          </mxGeometry>
        </mxCell>
        <mxCell id="ETTQzNYsxQj3hr1kbfDq-42" style="edgeStyle=orthogonalEdgeStyle;rounded=0;orthogonalLoop=1;jettySize=auto;html=1;entryX=1;entryY=0.5;entryDx=0;entryDy=0;startArrow=ERone;startFill=0;endArrow=ERone;endFill=0;" edge="1" parent="1" source="ETTQzNYsxQj3hr1kbfDq-29" target="ETTQzNYsxQj3hr1kbfDq-37">
          <mxGeometry relative="1" as="geometry">
            <mxPoint x="590" y="610" as="targetPoint" />
          </mxGeometry>
        </mxCell>
        <mxCell id="ETTQzNYsxQj3hr1kbfDq-43" style="edgeStyle=orthogonalEdgeStyle;rounded=0;orthogonalLoop=1;jettySize=auto;html=1;entryX=0.5;entryY=0;entryDx=0;entryDy=0;startArrow=ERone;startFill=0;endArrow=ERone;endFill=0;" edge="1" parent="1" source="ETTQzNYsxQj3hr1kbfDq-29" target="ETTQzNYsxQj3hr1kbfDq-41">
          <mxGeometry relative="1" as="geometry">
            <mxPoint x="760" y="740" as="targetPoint" />
            <Array as="points">
              <mxPoint x="720" y="695" />
              <mxPoint x="790" y="695" />
            </Array>
          </mxGeometry>
        </mxCell>
        <mxCell id="ETTQzNYsxQj3hr1kbfDq-44" style="edgeStyle=orthogonalEdgeStyle;rounded=0;orthogonalLoop=1;jettySize=auto;html=1;entryX=0.5;entryY=0;entryDx=0;entryDy=0;startArrow=ERone;startFill=0;endArrow=ERone;endFill=0;" edge="1" parent="1" source="ETTQzNYsxQj3hr1kbfDq-29" target="ETTQzNYsxQj3hr1kbfDq-39">
          <mxGeometry relative="1" as="geometry">
            <Array as="points">
              <mxPoint x="690" y="695" />
              <mxPoint x="660" y="695" />
              <mxPoint x="660" y="760" />
            </Array>
          </mxGeometry>
        </mxCell>
        <mxCell id="ETTQzNYsxQj3hr1kbfDq-48" style="edgeStyle=orthogonalEdgeStyle;rounded=0;orthogonalLoop=1;jettySize=auto;html=1;entryX=1;entryY=0.5;entryDx=0;entryDy=0;startArrow=ERone;startFill=0;endArrow=ERone;endFill=0;" edge="1" parent="1" source="ETTQzNYsxQj3hr1kbfDq-29" target="ETTQzNYsxQj3hr1kbfDq-38">
          <mxGeometry relative="1" as="geometry">
            <Array as="points">
              <mxPoint x="650" y="670" />
              <mxPoint x="610" y="670" />
              <mxPoint x="610" y="710" />
            </Array>
          </mxGeometry>
        </mxCell>
        <mxCell id="ETTQzNYsxQj3hr1kbfDq-29" value="student" style="rounded=0;whiteSpace=wrap;html=1;" vertex="1" parent="1">
          <mxGeometry x="640" y="580" width="120" height="60" as="geometry" />
        </mxCell>
        <mxCell id="ETTQzNYsxQj3hr1kbfDq-32" style="edgeStyle=orthogonalEdgeStyle;rounded=0;orthogonalLoop=1;jettySize=auto;html=1;entryX=0.5;entryY=1;entryDx=0;entryDy=0;endArrow=ERmany;endFill=0;startArrow=ERmany;startFill=0;exitX=0;exitY=0.5;exitDx=0;exitDy=0;" edge="1" parent="1" source="ETTQzNYsxQj3hr1kbfDq-30">
          <mxGeometry relative="1" as="geometry">
            <mxPoint x="640" y="410" as="sourcePoint" />
            <mxPoint x="442.5" y="300" as="targetPoint" />
            <Array as="points">
              <mxPoint x="443" y="400" />
            </Array>
          </mxGeometry>
        </mxCell>
        <mxCell id="ETTQzNYsxQj3hr1kbfDq-91" style="edgeStyle=orthogonalEdgeStyle;rounded=0;orthogonalLoop=1;jettySize=auto;html=1;entryX=0.5;entryY=1;entryDx=0;entryDy=0;startArrow=ERone;startFill=0;endArrow=ERone;endFill=0;" edge="1" parent="1" source="ETTQzNYsxQj3hr1kbfDq-30" target="ETTQzNYsxQj3hr1kbfDq-54">
          <mxGeometry relative="1" as="geometry">
            <mxPoint x="630" y="290" as="targetPoint" />
            <Array as="points">
              <mxPoint x="660" y="325" />
              <mxPoint x="640" y="325" />
            </Array>
          </mxGeometry>
        </mxCell>
        <mxCell id="ETTQzNYsxQj3hr1kbfDq-93" style="edgeStyle=orthogonalEdgeStyle;rounded=0;orthogonalLoop=1;jettySize=auto;html=1;entryX=0.5;entryY=1;entryDx=0;entryDy=0;startArrow=ERone;startFill=0;endArrow=ERone;endFill=0;" edge="1" parent="1" source="ETTQzNYsxQj3hr1kbfDq-30" target="ETTQzNYsxQj3hr1kbfDq-53">
          <mxGeometry relative="1" as="geometry">
            <mxPoint x="760" y="290" as="targetPoint" />
            <Array as="points">
              <mxPoint x="670" y="325" />
              <mxPoint x="767" y="325" />
            </Array>
          </mxGeometry>
        </mxCell>
        <mxCell id="ETTQzNYsxQj3hr1kbfDq-95" style="edgeStyle=orthogonalEdgeStyle;rounded=0;orthogonalLoop=1;jettySize=auto;html=1;" edge="1" parent="1" source="ETTQzNYsxQj3hr1kbfDq-30" target="ETTQzNYsxQj3hr1kbfDq-52">
          <mxGeometry relative="1" as="geometry">
            <Array as="points">
              <mxPoint x="690" y="340" />
              <mxPoint x="810" y="340" />
              <mxPoint x="810" y="300" />
              <mxPoint x="900" y="300" />
            </Array>
          </mxGeometry>
        </mxCell>
        <mxCell id="ETTQzNYsxQj3hr1kbfDq-103" style="edgeStyle=orthogonalEdgeStyle;rounded=0;orthogonalLoop=1;jettySize=auto;html=1;" edge="1" parent="1" source="ETTQzNYsxQj3hr1kbfDq-30" target="ETTQzNYsxQj3hr1kbfDq-51">
          <mxGeometry relative="1" as="geometry">
            <Array as="points">
              <mxPoint x="815" y="380" />
              <mxPoint x="815" y="350" />
            </Array>
          </mxGeometry>
        </mxCell>
        <mxCell id="ETTQzNYsxQj3hr1kbfDq-104" style="edgeStyle=orthogonalEdgeStyle;rounded=0;orthogonalLoop=1;jettySize=auto;html=1;entryX=0;entryY=0.5;entryDx=0;entryDy=0;" edge="1" parent="1" source="ETTQzNYsxQj3hr1kbfDq-30" target="ETTQzNYsxQj3hr1kbfDq-40">
          <mxGeometry relative="1" as="geometry">
            <Array as="points">
              <mxPoint x="805" y="420" />
              <mxPoint x="805" y="490" />
            </Array>
          </mxGeometry>
        </mxCell>
        <mxCell id="ETTQzNYsxQj3hr1kbfDq-30" value="grupa" style="rounded=0;whiteSpace=wrap;html=1;" vertex="1" parent="1">
          <mxGeometry x="650" y="370" width="120" height="60" as="geometry" />
        </mxCell>
        <mxCell id="ETTQzNYsxQj3hr1kbfDq-37" value="indeks" style="ellipse;whiteSpace=wrap;html=1;" vertex="1" parent="1">
          <mxGeometry x="460" y="570" width="120" height="80" as="geometry" />
        </mxCell>
        <mxCell id="ETTQzNYsxQj3hr1kbfDq-38" value="imie" style="ellipse;whiteSpace=wrap;html=1;" vertex="1" parent="1">
          <mxGeometry x="460" y="670" width="120" height="80" as="geometry" />
        </mxCell>
        <mxCell id="ETTQzNYsxQj3hr1kbfDq-39" value="nazwisko" style="ellipse;whiteSpace=wrap;html=1;" vertex="1" parent="1">
          <mxGeometry x="594" y="760" width="120" height="80" as="geometry" />
        </mxCell>
        <mxCell id="ETTQzNYsxQj3hr1kbfDq-40" value="identyfikator" style="ellipse;whiteSpace=wrap;html=1;" vertex="1" parent="1">
          <mxGeometry x="840" y="450" width="120" height="80" as="geometry" />
        </mxCell>
        <mxCell id="ETTQzNYsxQj3hr1kbfDq-41" value="data urodzenia" style="ellipse;whiteSpace=wrap;html=1;" vertex="1" parent="1">
          <mxGeometry x="730" y="760" width="120" height="80" as="geometry" />
        </mxCell>
        <mxCell id="ETTQzNYsxQj3hr1kbfDq-51" value="nazwa" style="ellipse;whiteSpace=wrap;html=1;" vertex="1" parent="1">
          <mxGeometry x="860" y="310" width="120" height="80" as="geometry" />
        </mxCell>
        <mxCell id="ETTQzNYsxQj3hr1kbfDq-52" value="kierunek" style="ellipse;whiteSpace=wrap;html=1;" vertex="1" parent="1">
          <mxGeometry x="840" y="200" width="120" height="80" as="geometry" />
        </mxCell>
        <mxCell id="ETTQzNYsxQj3hr1kbfDq-53" value="semestr" style="ellipse;whiteSpace=wrap;html=1;" vertex="1" parent="1">
          <mxGeometry x="707" y="200" width="120" height="80" as="geometry" />
        </mxCell>
        <mxCell id="ETTQzNYsxQj3hr1kbfDq-54" value="specjalnosc" style="ellipse;whiteSpace=wrap;html=1;" vertex="1" parent="1">
          <mxGeometry x="580" y="200" width="120" height="80" as="geometry" />
        </mxCell>
        <mxCell id="ETTQzNYsxQj3hr1kbfDq-89" value="" style="edgeStyle=orthogonalEdgeStyle;rounded=0;orthogonalLoop=1;jettySize=auto;html=1;startArrow=ERone;startFill=0;endArrow=ERmany;endFill=0;" edge="1" parent="1" source="ETTQzNYsxQj3hr1kbfDq-87" target="ETTQzNYsxQj3hr1kbfDq-88">
          <mxGeometry relative="1" as="geometry">
            <Array as="points">
              <mxPoint x="130" y="740" />
              <mxPoint x="130" y="740" />
            </Array>
          </mxGeometry>
        </mxCell>
        <mxCell id="ETTQzNYsxQj3hr1kbfDq-87" value="stara dziada" style="rounded=0;whiteSpace=wrap;html=1;" vertex="1" parent="1">
          <mxGeometry x="70" y="610" width="120" height="60" as="geometry" />
        </mxCell>
        <mxCell id="ETTQzNYsxQj3hr1kbfDq-88" value="burdel" style="ellipse;whiteSpace=wrap;html=1;" vertex="1" parent="1">
          <mxGeometry x="70" y="750" width="120" height="80" as="geometry" />
        </mxCell>
      </root>
    </mxGraphModel>
  </diagram>
</mxfile>
